<?xml version="1.0" encoding="UTF-8"?>
<svg id="_Слой_1" data-name="Слой_1" xmlns="http://www.w3.org/2000/svg" version="1.1" viewBox="0 0 80 80">
  <!-- Generator: Adobe Illustrator 29.5.1, SVG Export Plug-In . SVG Version: 2.1.0 Build 141)  -->
  <defs>
    <style>
      .st0 {
        fill: #fff;
      }
    </style>
  </defs>
  <path class="st0" d="M40,69.2c-16.1,0-29.2-13.1-29.2-29.2s13.1-29.2,29.2-29.2,29.2,13.1,29.2,29.2-13.1,29.2-29.2,29.2Z"/>
  <path d="M40,11.3c15.8,0,28.7,12.9,28.7,28.7s-12.9,28.7-28.7,28.7-28.7-12.9-28.7-28.7,12.9-28.7,28.7-28.7M40,10.3c-16.4,0-29.7,13.3-29.7,29.7s13.3,29.7,29.7,29.7,29.7-13.3,29.7-29.7-13.3-29.7-29.7-29.7h0Z"/>
</svg>